<svg xmlns="http://www.w3.org/2000/svg" xmlns:xlink="http://www.w3.org/1999/xlink" version="1.1" x="0px" y="0px" viewBox="0 0 100 125" enable-background="new 0 0 100 100" xml:space="preserve"><path d="M62.657,44.282l-5.08-6.77c-0.409-0.575-0.399-1.088-0.399-1.523c0-0.338,0.147-0.817,0.305-1.424  c0.314-1.21,0.756-2.866,0.756-5.364c0-3.246-2.104-13.213-2.812-16.466c0.243-0.134,0.459-0.322,0.619-0.559  c0.329-0.488,0.396-0.93,0.176-1.476L55.871,10h0.349c0.339,0,0.783-0.215,0.968-0.5s0.083-0.864-0.056-1.174l-1.084-2.122  C55.642,5.299,54.737,5,53.744,5H50h-3.744c-0.993,0-1.897,0.299-2.304,1.204l-1.084,2.122c-0.139,0.31-0.193,0.857-0.009,1.143  S43.441,10,43.78,10h0.349l-0.352,0.7c-0.22,0.546-0.153,0.987,0.176,1.476c0.16,0.237,0.376,0.426,0.619,0.559  c-0.708,3.253-2.812,13.22-2.812,16.466c0,2.498,0.442,4.154,0.756,5.364c0.157,0.606,0.305,1.086,0.305,1.424  c0,0.436,0.01,0.948-0.399,1.523l-5.08,6.77C36.213,45.901,36,47.108,36,48.925v40.666C36,92.209,37.773,95,40.392,95H50h9.608  C62.227,95,64,92.209,64,89.591V48.925C64,47.108,63.787,45.901,62.657,44.282z M61,77h-4.13C55.19,81,53,82.5,50,82.5  S44.81,81,43.13,77H39V56h4.13c1.68-4,3.87-5.5,6.87-5.5s5.19,1.5,6.87,5.5H61V77z"/></svg>